<?xml version="1.0" encoding="utf-8"?>
<svg width="1000mm" viewBox="0 0 1000 50" xmlns="http://www.w3.org/2000/svg">
  <path d="M 0 12.5 L 1000 12.5 L 1000 37.5 L 0 37.5 Z M 602.5 25 C 602.5 26.381 603.619 27.5 605 27.5 L 620 27.5 C 621.381 27.5 622.5 26.381 622.5 25 C 622.5 23.619 621.381 22.5 620 22.5 L 605 22.5 C 603.619 22.5 602.5 23.619 602.5 25 Z M 152.5 25 C 152.5 26.381 153.619 27.5 155 27.5 L 170 27.5 C 171.381 27.5 172.5 26.381 172.5 25 C 172.5 23.619 171.381 22.5 170 22.5 L 155 22.5 C 153.619 22.5 152.5 23.619 152.5 25 Z M 102.5 25 C 102.5 26.381 103.619 27.5 105 27.5 L 120 27.5 C 121.381 27.5 122.5 26.381 122.5 25 C 122.5 23.619 121.381 22.5 120 22.5 L 105 22.5 C 103.619 22.5 102.5 23.619 102.5 25 Z M 127.5 25 C 127.5 26.381 128.619 27.5 130 27.5 L 145 27.5 C 146.381 27.5 147.5 26.381 147.5 25 C 147.5 23.619 146.381 22.5 145 22.5 L 130 22.5 C 128.619 22.5 127.5 23.619 127.5 25 Z M 77.5 25 C 77.5 26.381 78.619 27.5 80 27.5 L 95 27.5 C 96.381 27.5 97.5 26.381 97.5 25 C 97.5 23.619 96.381 22.5 95 22.5 L 80 22.5 C 78.619 22.5 77.5 23.619 77.5 25 Z M 52.5 25 C 52.5 26.381 53.619 27.5 55 27.5 L 70 27.5 C 71.381 27.5 72.5 26.381 72.5 25 C 72.5 23.619 71.381 22.5 70 22.5 L 55 22.5 C 53.619 22.5 52.5 23.619 52.5 25 Z M 27.5 25 C 27.5 26.381 28.619 27.5 30 27.5 L 45 27.5 C 46.381 27.5 47.5 26.381 47.5 25 C 47.5 23.619 46.381 22.5 45 22.5 L 30 22.5 C 28.619 22.5 27.5 23.619 27.5 25 Z M 177.5 25 C 177.5 26.381 178.619 27.5 180 27.5 L 195 27.5 C 196.381 27.5 197.5 26.381 197.5 25 C 197.5 23.619 196.381 22.5 195 22.5 L 180 22.5 C 178.619 22.5 177.5 23.619 177.5 25 Z M 377.5 25 C 377.5 26.381 378.619 27.5 380 27.5 L 395 27.5 C 396.381 27.5 397.5 26.381 397.5 25 C 397.5 23.619 396.381 22.5 395 22.5 L 380 22.5 C 378.619 22.5 377.5 23.619 377.5 25 Z M 352.5 25 C 352.5 26.381 353.619 27.5 355 27.5 L 370 27.5 C 371.381 27.5 372.5 26.381 372.5 25 C 372.5 23.619 371.381 22.5 370 22.5 L 355 22.5 C 353.619 22.5 352.5 23.619 352.5 25 Z M 302.5 25 C 302.5 26.381 303.619 27.5 305 27.5 L 320 27.5 C 321.381 27.5 322.5 26.381 322.5 25 C 322.5 23.619 321.381 22.5 320 22.5 L 305 22.5 C 303.619 22.5 302.5 23.619 302.5 25 Z M 202.5 25 C 202.5 26.381 203.619 27.5 205 27.5 L 220 27.5 C 221.381 27.5 222.5 26.381 222.5 25 C 222.5 23.619 221.381 22.5 220 22.5 L 205 22.5 C 203.619 22.5 202.5 23.619 202.5 25 Z M 277.5 25 C 277.5 26.381 278.619 27.5 280 27.5 L 295 27.5 C 296.381 27.5 297.5 26.381 297.5 25 C 297.5 23.619 296.381 22.5 295 22.5 L 280 22.5 C 278.619 22.5 277.5 23.619 277.5 25 Z M 252.5 25 C 252.5 26.381 253.619 27.5 255 27.5 L 270 27.5 C 271.381 27.5 272.5 26.381 272.5 25 C 272.5 23.619 271.381 22.5 270 22.5 L 255 22.5 C 253.619 22.5 252.5 23.619 252.5 25 Z M 227.5 25 C 227.5 26.381 228.619 27.5 230 27.5 L 245 27.5 C 246.381 27.5 247.5 26.381 247.5 25 C 247.5 23.619 246.381 22.5 245 22.5 L 230 22.5 C 228.619 22.5 227.5 23.619 227.5 25 Z M 402.5 25 C 402.5 26.381 403.619 27.5 405 27.5 L 420 27.5 C 421.381 27.5 422.5 26.381 422.5 25 C 422.5 23.619 421.381 22.5 420 22.5 L 405 22.5 C 403.619 22.5 402.5 23.619 402.5 25 Z M 577.5 25 C 577.5 26.381 578.619 27.5 580 27.5 L 595 27.5 C 596.381 27.5 597.5 26.381 597.5 25 C 597.5 23.619 596.381 22.5 595 22.5 L 580 22.5 C 578.619 22.5 577.5 23.619 577.5 25 Z M 552.5 25 C 552.5 26.381 553.619 27.5 555 27.5 L 570 27.5 C 571.381 27.5 572.5 26.381 572.5 25 C 572.5 23.619 571.381 22.5 570 22.5 L 555 22.5 C 553.619 22.5 552.5 23.619 552.5 25 Z M 502.5 25 C 502.5 26.381 503.619 27.5 505 27.5 L 520 27.5 C 521.381 27.5 522.5 26.381 522.5 25 C 522.5 23.619 521.381 22.5 520 22.5 L 505 22.5 C 503.619 22.5 502.5 23.619 502.5 25 Z M 527.5 25 C 527.5 26.381 528.619 27.5 530 27.5 L 545 27.5 C 546.381 27.5 547.5 26.381 547.5 25 C 547.5 23.619 546.381 22.5 545 22.5 L 530 22.5 C 528.619 22.5 527.5 23.619 527.5 25 Z M 477.5 25 C 477.5 26.381 478.619 27.5 480 27.5 L 495 27.5 C 496.381 27.5 497.5 26.381 497.5 25 C 497.5 23.619 496.381 22.5 495 22.5 L 480 22.5 C 478.619 22.5 477.5 23.619 477.5 25 Z M 452.5 25 C 452.5 26.381 453.619 27.5 455 27.5 L 470 27.5 C 471.381 27.5 472.5 26.381 472.5 25 C 472.5 23.619 471.381 22.5 470 22.5 L 455 22.5 C 453.619 22.5 452.5 23.619 452.5 25 Z M 427.5 25 C 427.5 26.381 428.619 27.5 430 27.5 L 445 27.5 C 446.381 27.5 447.5 26.381 447.5 25 C 447.5 23.619 446.381 22.5 445 22.5 L 430 22.5 C 428.619 22.5 427.5 23.619 427.5 25 Z M 327.5 25 C 327.5 26.381 328.619 27.5 330 27.5 L 345 27.5 C 346.381 27.5 347.5 26.381 347.5 25 C 347.5 23.619 346.381 22.5 345 22.5 L 330 22.5 C 328.619 22.5 327.5 23.619 327.5 25 Z M 777.5 25 C 777.5 26.381 778.619 27.5 780 27.5 L 795 27.5 C 796.381 27.5 797.5 26.381 797.5 25 C 797.5 23.619 796.381 22.5 795 22.5 L 780 22.5 C 778.619 22.5 777.5 23.619 777.5 25 Z M 752.5 25 C 752.5 26.381 753.619 27.5 755 27.5 L 770 27.5 C 771.381 27.5 772.5 26.381 772.5 25 C 772.5 23.619 771.381 22.5 770 22.5 L 755 22.5 C 753.619 22.5 752.5 23.619 752.5 25 Z M 702.5 25 C 702.5 26.381 703.619 27.5 705 27.5 L 720 27.5 C 721.381 27.5 722.5 26.381 722.5 25 C 722.5 23.619 721.381 22.5 720 22.5 L 705 22.5 C 703.619 22.5 702.5 23.619 702.5 25 Z M 727.5 25 C 727.5 26.381 728.619 27.5 730 27.5 L 745 27.5 C 746.381 27.5 747.5 26.381 747.5 25 C 747.5 23.619 746.381 22.5 745 22.5 L 730 22.5 C 728.619 22.5 727.5 23.619 727.5 25 Z M 677.5 25 C 677.5 26.381 678.619 27.5 680 27.5 L 695 27.5 C 696.381 27.5 697.5 26.381 697.5 25 C 697.5 23.619 696.381 22.5 695 22.5 L 680 22.5 C 678.619 22.5 677.5 23.619 677.5 25 Z M 652.5 25 C 652.5 26.381 653.619 27.5 655 27.5 L 670 27.5 C 671.381 27.5 672.5 26.381 672.5 25 C 672.5 23.619 671.381 22.5 670 22.5 L 655 22.5 C 653.619 22.5 652.5 23.619 652.5 25 Z M 627.5 25 C 627.5 26.381 628.619 27.5 630 27.5 L 645 27.5 C 646.381 27.5 647.5 26.381 647.5 25 C 647.5 23.619 646.381 22.5 645 22.5 L 630 22.5 C 628.619 22.5 627.5 23.619 627.5 25 Z M 2.5 25 C 2.5 26.381 3.619 27.5 5 27.5 L 20 27.5 C 21.381 27.5 22.5 26.381 22.5 25 C 22.5 23.619 21.381 22.5 20 22.5 L 5 22.5 C 3.619 22.5 2.5 23.619 2.5 25 Z M 977.5 25 C 977.5 26.381 978.619 27.5 980 27.5 L 995 27.5 C 996.381 27.5 997.5 26.381 997.5 25 C 997.5 23.619 996.381 22.5 995 22.5 L 980 22.5 C 978.619 22.5 977.5 23.619 977.5 25 Z M 952.5 25 C 952.5 26.381 953.619 27.5 955 27.5 L 970 27.5 C 971.381 27.5 972.5 26.381 972.5 25 C 972.5 23.619 971.381 22.5 970 22.5 L 955 22.5 C 953.619 22.5 952.5 23.619 952.5 25 Z M 902.5 25 C 902.5 26.381 903.619 27.5 905 27.5 L 920 27.5 C 921.381 27.5 922.5 26.381 922.5 25 C 922.5 23.619 921.381 22.5 920 22.5 L 905 22.5 C 903.619 22.5 902.5 23.619 902.5 25 Z M 927.5 25 C 927.5 26.381 928.619 27.5 930 27.5 L 945 27.5 C 946.381 27.5 947.5 26.381 947.5 25 C 947.5 23.619 946.381 22.5 945 22.5 L 930 22.5 C 928.619 22.5 927.5 23.619 927.5 25 Z M 877.5 25 C 877.5 26.381 878.619 27.5 880 27.5 L 895 27.5 C 896.381 27.5 897.5 26.381 897.5 25 C 897.5 23.619 896.381 22.5 895 22.5 L 880 22.5 C 878.619 22.5 877.5 23.619 877.5 25 Z M 852.5 25 C 852.5 26.381 853.619 27.5 855 27.5 L 870 27.5 C 871.381 27.5 872.5 26.381 872.5 25 C 872.5 23.619 871.381 22.5 870 22.5 L 855 22.5 C 853.619 22.5 852.5 23.619 852.5 25 Z M 827.5 25 C 827.5 26.381 828.619 27.5 830 27.5 L 845 27.5 C 846.381 27.5 847.5 26.381 847.5 25 C 847.5 23.619 846.381 22.5 845 22.5 L 830 22.5 C 828.619 22.5 827.5 23.619 827.5 25 Z M 802.5 25 C 802.5 26.381 803.619 27.5 805 27.5 L 820 27.5 C 821.381 27.5 822.5 26.381 822.5 25 C 822.5 23.619 821.381 22.5 820 22.5 L 805 22.5 C 803.619 22.5 802.5 23.619 802.5 25 Z" style="fill: rgb(204, 204, 204); stroke-width: 0.4;"/>
  <rect width="1000" height="5" y="7.5" style="fill: rgb(204, 204, 204); stroke-width: 0.4;"/>
  <rect width="1000" height="5" y="37.5" style="fill: rgb(204, 204, 204); stroke-width: 0.4;"/>
  <path d="M 0 7.5 L 1000 7.5" style="fill: none; stroke: black; stroke-width: 0.4;"/>
  <path d="M 0 12.5 L 1000 12.5" style="fill: none; stroke: black; stroke-width: 0.4;"/>
  <path d="M 0 37.5 L 1000 37.5" style="fill: none; stroke: black; stroke-width: 0.4;"/>
  <path d="M 0 42.5 L 1000 42.5" style="fill: none; stroke: black; stroke-width: 0.4;"/>
</svg>