<?xml version="1.0" encoding="utf-8"?>
<svg width="200mm" height="50mm" viewBox="0 0 200 50" xmlns="http://www.w3.org/2000/svg">
  <path d="M 0 12.5 L 200 12.5 L 200 37.5 L 0 37.5 Z M 177.5 25 C 177.5 26.381 178.619 27.5 180 27.5 L 195 27.5 C 196.381 27.5 197.5 26.381 197.5 25 C 197.5 23.619 196.381 22.5 195 22.5 L 180 22.5 C 178.619 22.5 177.5 23.619 177.5 25 Z M 152.5 25 C 152.5 26.381 153.619 27.5 155 27.5 L 170 27.5 C 171.381 27.5 172.5 26.381 172.5 25 C 172.5 23.619 171.381 22.5 170 22.5 L 155 22.5 C 153.619 22.5 152.5 23.619 152.5 25 Z M 102.5 25 C 102.5 26.381 103.619 27.5 105 27.5 L 120 27.5 C 121.381 27.5 122.5 26.381 122.5 25 C 122.5 23.619 121.381 22.5 120 22.5 L 105 22.5 C 103.619 22.5 102.5 23.619 102.5 25 Z M 127.5 25 C 127.5 26.381 128.619 27.5 130 27.5 L 145 27.5 C 146.381 27.5 147.5 26.381 147.5 25 C 147.5 23.619 146.381 22.5 145 22.5 L 130 22.5 C 128.619 22.5 127.5 23.619 127.5 25 Z M 77.5 25 C 77.5 26.381 78.619 27.5 80 27.5 L 95 27.5 C 96.381 27.5 97.5 26.381 97.5 25 C 97.5 23.619 96.381 22.5 95 22.5 L 80 22.5 C 78.619 22.5 77.5 23.619 77.5 25 Z M 52.5 25 C 52.5 26.381 53.619 27.5 55 27.5 L 70 27.5 C 71.381 27.5 72.5 26.381 72.5 25 C 72.5 23.619 71.381 22.5 70 22.5 L 55 22.5 C 53.619 22.5 52.5 23.619 52.5 25 Z M 27.5 25 C 27.5 26.381 28.619 27.5 30 27.5 L 45 27.5 C 46.381 27.5 47.5 26.381 47.5 25 C 47.5 23.619 46.381 22.5 45 22.5 L 30 22.5 C 28.619 22.5 27.5 23.619 27.5 25 Z M 2.5 25 C 2.5 26.381 3.619 27.5 5 27.5 L 20 27.5 C 21.381 27.5 22.5 26.381 22.5 25 C 22.5 23.619 21.381 22.5 20 22.5 L 5 22.5 C 3.619 22.5 2.5 23.619 2.5 25 Z" style="fill: rgb(204, 204, 204); stroke-width: 0.4;"/>
  <rect width="200" height="5" y="7.5" style="fill: rgb(204, 204, 204); stroke-width: 0.4;"/>
  <rect width="200" height="5" y="37.5" style="fill: rgb(204, 204, 204); stroke-width: 0.4;"/>
  <path d="M 0 7.5 H 200" style="fill: none; stroke: black; stroke-width: 0.4;"/>
  <path d="M 0 12.5 H 200" style="fill: none; stroke: black; stroke-width: 0.4;"/>
  <path d="M 0 37.5 H 200" style="fill: none; stroke: black; stroke-width: 0.4;"/>
  <path d="M 0 42.5 H 200" style="fill: none; stroke: black; stroke-width: 0.4;"/>
</svg>
