<?xml version="1.0" encoding="utf-8"?>
<svg width="100mm" height="100mm" viewBox="0 0 100 100" xmlns="http://www.w3.org/2000/svg">
    <defs>
        <radialGradient id="screw-head-ph-gradient" cx="50%" cy="50%" r="50%">
            <stop offset="0%" style="stop-color:rgb(16,16,16); stop-opacity:1" />
            <stop offset="100%" style="stop-color:rgb(92,92,92); stop-opacity:1" />
        </radialGradient>
        <radialGradient id="screw-head-shadow-gradient" cx="65%" cy="65%" r="65%">
            <stop offset="70%" style="stop-color:rgb(186,186,186); stop-opacity:1" />
            <stop offset="100%" style="stop-color:rgb(92,92,92); stop-opacity:1" />
        </radialGradient>
        <pattern id="screw-head-ph-slot-pattern" width="1" height="1" patternContentUnits="objectBoundingBox">
            <rect width="1" height="1" stroke="none" fill="url(#screw-head-shadow-gradient)" />
            <path d="M 0.57 0 v 0.23 c 0 0.2 0 0.2 0.2 0.2 v 0.14 c -0.2 0 -0.2 0 -0.2 0.2 v 0.23
                    h -0.14 v -0.23 c 0 -0.2 0 -0.2 -0.2 -0.2 v -0.14 c 0.2 0 0.2 0 0.2 -0.2 v -0.23 z"
                stroke="none" fill="url(#screw-head-ph-gradient)" transform="rotate(-120 0.5 0.5)"/>
        </pattern>
        <pattern id="screw-head-slot-pattern" width="1" height="1" patternContentUnits="objectBoundingBox">
            <rect width="1" height="1" stroke="none" fill="url(#screw-head-shadow-gradient)" />
            <path d="M 0.57 0 v 1 h -0.14 v -1 z"
                stroke="none" fill="url(#screw-head-ph-gradient)" transform="rotate(-140 0.5 0.5)"/>
        </pattern>
        <pattern id="screw-head-ph-pattern" width="1" height="1" patternContentUnits="objectBoundingBox">
            <rect width="1" height="1" stroke="none" fill="url(#screw-head-shadow-gradient)" />
            <path d="M 0.57 0.23 c 0 0.2 0 0.2 0.2 0.2 v 0.14 c -0.2 0 -0.2 0 -0.2 0.2
                    h -0.14 c 0 -0.2 0 -0.2 -0.2 -0.2 v -0.14 c 0.2 0 0.2 0 0.2 -0.2 z"
                stroke="none" fill="url(#screw-head-ph-gradient)" transform="rotate(-30 0.5 0.5)"/>
        </pattern>
    </defs>
</svg>

