<?xml version="1.0" encoding="utf-8"?>
<svg viewBox="0 0 7.4 50" xmlns="http://www.w3.org/2000/svg">
  <defs>
    <radialGradient id="gradient-0" gradientUnits="userSpaceOnUse" cx="46.885" cy="16.687" r="1.319" gradientTransform="matrix(2.008142, 0.0798, -0.085241, 2.032894, -88.997913, -22.137553)">
      <stop offset="0" style="stop-color: rgb(173, 173, 173);"/>
      <stop offset="1"/>
    </radialGradient>
    <radialGradient id="gradient-1" gradientUnits="userSpaceOnUse" cx="46.885" cy="16.687" r="1.319" gradientTransform="matrix(2.008142, 0.0798, -0.085241, 2.032894, -88.997913, -22.137553)">
      <stop offset="0" style="stop-color: rgb(173, 173, 173);"/>
      <stop offset="1"/>
    </radialGradient>
    <radialGradient id="gradient-2" gradientUnits="userSpaceOnUse" cx="46.885" cy="16.687" r="1.319" gradientTransform="matrix(3.012215, 0.1197, -0.127863, 3.049342, -134.746941, -30.706361)">
      <stop offset="0" style="stop-color: rgb(107, 107, 107);"/>
      <stop offset="1"/>
    </radialGradient>
  </defs>
  <rect x="2.2" y="3" width="3" height="2" style="fill: rgb(216, 216, 216); stroke-width: 0.4; stroke: rgb(0, 0, 0);"/>
  <rect width="3.7" height="40" style="stroke-width: 0.4; fill: rgb(251, 255, 0);" y="5" x="3.7"/>
  <rect width="3.7" height="40" style="stroke-width: 0.4; fill: rgb(16, 208, 32);" y="5"/>
  <rect y="5" width="7.4" height="2" style="fill-opacity: 0.1;"/>
  <rect y="7" width="7.4" height="3" style="stroke: rgb(0, 0, 0); stroke-width: 0.4; fill-opacity: 0.2;"/>
  <rect y="40" width="7.4" height="3" style="stroke: rgb(0, 0, 0); stroke-width: 0.4; fill-opacity: 0.2;"/>
  <rect x="2.2" y="45" width="3" height="2" style="fill: rgb(216, 216, 216); stroke-width: 0.4; stroke: rgb(0, 0, 0);"/>
  <rect y="43" width="7.4" height="2" style="fill-opacity: 0.1;"/>
  <g transform="matrix(1, 0, 0, 1, 0.4, 0)">
    <ellipse cx="3.3" cy="15" rx="2" ry="2" style="fill: url(#gradient-0); fill-opacity: 0.8;"/>
    <ellipse cx="3.3" cy="15" rx="2" ry="2" style="fill-opacity: 0.8; stroke: rgb(0, 0, 0); stroke-width: 0.4; fill: none;"/>
  </g>
  <g transform="matrix(1, 0, 0, 1, 0.4, 20)">
    <ellipse cx="3.3" cy="15" rx="2" ry="2" style="fill: url(#gradient-1); fill-opacity: 0.8;"/>
    <ellipse cx="3.3" cy="15" rx="2" ry="2" style="fill-opacity: 0.8; stroke: rgb(0, 0, 0); stroke-width: 0.4; fill: none;"/>
  </g>
  <ellipse cx="3.7" cy="25" rx="3" ry="3" style="fill: url(#gradient-2); fill-opacity: 0.9;"/>
  <ellipse cx="3.7" cy="25" rx="3" ry="3" style="fill-opacity: 0.8; stroke: rgb(0, 0, 0); fill: none; stroke-width: 0.4;"/>
  <rect width="7.4" height="40" style="stroke-width: 0.8; stroke: rgb(0, 0, 0); fill: none;" y="5"/>
</svg>