<?xml version="1.0" encoding="utf-8"?>
<svg viewBox="0 0 35 100" xmlns="http://www.w3.org/2000/svg" xmlns:bx="https://boxy-svg.com">
  <rect y="10" width="35" height="80" style="fill: rgb(238, 238, 238); stroke-width: 0.4; stroke: rgb(0, 0, 0);"/>
  <path d="M 0 27.5 L 35 27.5 M 35 72.5 L 0 72.5" style="fill: none; stroke: rgb(0, 0, 0); stroke-width: 0.4;"/>
  <ellipse cx="8.75" cy="15.75" rx="3.75" ry="3.75" style="stroke-width: 0.4; stroke: rgb(0, 0, 0); fill: rgb(111, 111, 111);"/>
  <rect y="41.5" width="13.5" height="10.5" x="19.5"/>
  <rect y="41.5" width="13.5" height="3.576" x="19.5" style="fill: rgb(86, 86, 86);"/>
  <rect y="37.5" width="17.5" height="4.5" x="17.5"/>
  <rect y="42" width="2" height="13" style="stroke-width: 0.4; stroke: rgb(0, 0, 0); fill: rgb(238, 238, 238);" x="17.5"/>
  <rect y="42" width="2" height="13" style="stroke-width: 0.4; stroke: rgb(0, 0, 0); fill: rgb(238, 238, 238);" x="33"/>
  <rect x="19.5" width="13.5" height="3" style="stroke-width: 0.4; stroke: rgb(0, 0, 0); fill: rgb(238, 238, 238);" y="52"/>
  <path d="M -23.728 81.681 L -19.728 95.681 L -27.728 95.681 L -23.728 81.681 Z" style="fill: rgb(216, 216, 216); stroke: rgb(0, 0, 0); stroke-width: 0.2;" transform="matrix(0, 1, -1, 0, 95.681, 85.728041)" bx:shape="triangle -27.728 81.681 8 14 0.5 0 1@4f80ef38"/>
  <ellipse cx="8.75" cy="84.25" rx="3.75" ry="3.75" style="stroke-width: 0.4; stroke: rgb(0, 0, 0); fill: rgb(111, 111, 111);"/>
  <rect class="outline" y="10" width="35" height="80" style="fill: none; stroke-width: 0.8; stroke: rgb(0, 0, 0);" transform="matrix(1.0000000000000002, 0, 0, 1.0000000000000002, 0, 0)"/>
  <ellipse cx="26.25" cy="15.75" rx="3.75" ry="3.75" style="stroke-width: 0.4; stroke: rgb(0, 0, 0); fill: rgb(111, 111, 111);"/>
  <ellipse cx="26.25" cy="84.25" rx="3.75" ry="3.75" style="stroke-width: 0.4; stroke: rgb(0, 0, 0); fill: rgb(111, 111, 111);"/>
  <rect x="19.5" y="49.128" width="13.5" height="4" style="fill: rgb(216, 216, 216); stroke-width: 0.2; stroke: rgb(0, 0, 0);" transform="matrix(1, 0, 0, 1.000001, 0, 10.871909)"/>
  <rect x="20.5" y="61" width="11.5" height="2" style="stroke: rgb(0, 0, 0); fill: rgb(25, 171, 3); stroke-width: 0.4;"/>
  <ellipse cx="9.5" cy="42" rx="4.5" ry="4.5" style="fill: rgb(255, 238, 0); stroke-width: 0.4; stroke: rgb(0, 0, 0);"/>
  <text x="5.826" y="50.998" style="font-size: 3px; white-space: pre;">TEST</text>
</svg>
