<?xml version="1.0" encoding="utf-8"?>
<svg viewBox="0 0 17.5 100" xmlns="http://www.w3.org/2000/svg" xmlns:bx="https://boxy-svg.com">
  <path d="M 5 8 L 12.5 8 L 12.5 10 L 17.5 10 L 17.5 90 L 12.5 90 L 12.5 92 L 5 92 L 5 90 L 0 90 L 0 10 L 5 10 Z" style="stroke-width: 0.4; stroke: rgb(0, 0, 0); fill: rgb(238, 238, 238);"/>
  <path d="M 0 27.5 H 17.5 M 17.5 72.5 H 0" style="fill: none; stroke: rgb(0, 0, 0); stroke-width: 0.4;"/>
  <ellipse cx="8.75" cy="15.75" rx="3.75" ry="3.75" style="stroke-width: 0.4; stroke: rgb(0, 0, 0); fill: url(#screw-head-ph-slot-pattern);"/>
  <rect y="41.5" width="13.5" height="10.5" x="2"/>
  <rect y="32.785" width="13.5" height="3.576" x="2" style="fill: rgb(86, 86, 86);" transform="matrix(1, 0, 0, 1.000001, 0, 8.715087)"/>
  <rect y="35.252" width="17.5" height="4.5" transform="matrix(1, 0, 0, 1.000001, 0, 2.248234)"/>
  <rect y="42" width="2" height="13" style="stroke-width: 0.4; stroke: rgb(0, 0, 0); fill: rgb(238, 238, 238);"/>
  <rect y="42" width="2" height="13" style="stroke-width: 0.4; stroke: rgb(0, 0, 0); fill: rgb(238, 238, 238);" x="15.5"/>
  <rect x="2" width="13.5" height="3" style="stroke-width: 0.4; stroke: rgb(0, 0, 0); fill: rgb(238, 238, 238);" y="52"/>
  <path d="M -23.728 81.681 L -19.728 95.681 L -27.728 95.681 L -23.728 81.681 Z" style="fill: rgb(216, 216, 216); stroke: rgb(0, 0, 0); stroke-width: 0.2;" transform="matrix(0, 1, -1, 0, 95.681, 85.728041)" bx:shape="triangle -27.728 81.681 8 14 0.5 0 1@4f80ef38"/>
  <path d="M -8.898 35.007 L -7.398 41.007 L -10.398 41.007 L -8.898 35.007 Z" style="stroke-width: 0.4; stroke: rgb(0, 0, 0); fill: rgb(26, 171, 3);" transform="matrix(0, 1, -1, 0, 46.007, 70.897996)" bx:shape="triangle -10.398 35.007 3 6 0.5 0 1@5811f3c1"/>
  <ellipse cx="8.75" cy="84.25" rx="3.75" ry="3.75" style="stroke-width: 0.4; stroke: rgb(0, 0, 0); fill: url(#screw-head-ph-slot-pattern);"/>
  <path class="outline" d="M 5 8 L 12.5 8 L 12.5 10 L 17.5 10 L 17.5 90 L 12.5 90 L 12.5 92 L 5 92 L 5 90 L 0 90 L 0 10 L 5 10 Z" style="stroke: rgb(0, 0, 0); fill: none; stroke-width: 0.8;" transform="matrix(1.0000000000000002, 0, 0, 1.0000000000000002, 0, 0)"/>
</svg>
