<?xml version="1.0" encoding="utf-8"?>
<svg viewBox="0 0 156 110" xmlns="http://www.w3.org/2000/svg">
  <rect y="11" width="156" height="88" style="stroke: rgb(0, 0, 0); stroke-width: 0.8; fill: rgb(32, 32, 32);"/>
  <rect y="19" width="156" height="5" style="stroke: none; fill-opacity:0.2; fill: rgb(0, 0, 0);"/>
  <rect y="85" width="156" height="5" style="stroke: none; fill-opacity:0.2; fill: rgb(0, 0, 0);"/>
  <path d="M 0 19 h 156 M 0 90 h 156" style="fill: none; stroke: rgb(0, 0, 0); stroke-width: 0.4;"/>
  <path d="M 0 24 h 156 M 0 85 h 156" style="fill: none; stroke: rgb(0, 0, 0); stroke-width: 0.4;"/>
  <path d="M 0 32 h 156 M 0 77 h 156" style="fill: none; stroke: rgb(0, 0, 0); stroke-width: 0.4;"/>
  <path d="M 156 51 h -55 l -6 8 h 61 z" style="fill: rgb(131, 184, 25); stroke: rgb(76, 76, 76); stroke-width: 0.2;"/>
  <path d="M 100 51 h -33 l -2 4 l 2 4 h 27 z" style="fill: rgb(0, 0, 0); stroke: rgb(76, 76, 76); stroke-width: 0.2;"/>
  <path d="M 2.5 55.5 a 0.5 0.5 0 0 1 0 -1 h 11 a 0.5 0.5 0 0 1 0 1 z" style="fill: rgb(76, 76, 76); stroke: rgb(0, 0, 0); stroke-width: 0.2;"/>
  <path d="M 16.5 55.5 a 0.5 0.5 0 0 1 0 -1 h 11 a 0.5 0.5 0 0 1 0 1 z" style="fill: rgb(76, 76, 76); stroke: rgb(0, 0, 0); stroke-width: 0.2;"/>

  <g transform="translate(93, 2)">
    <rect x="0" y="0" width="25" height="9" style="fill: rgb(64, 192, 128); stroke:rgb(0, 0, 0); stroke-width: 0.4;"/>
    <path d="M 0 0.5 h 25 m 0 6 h -25" style="fill: none; stroke:rgb(0, 0, 0); stroke-width: 0.4;"/>
    <ellipse cx="2.5" cy="3.5" rx="2" ry="2" style="stroke: rgb(0, 0, 0); stroke-width: 0.4; fill: url(#screw-head-slot-pattern);"/>
    <ellipse cx="7.5" cy="3.5" rx="2" ry="2" style="stroke: rgb(0, 0, 0); stroke-width: 0.4; fill: url(#screw-head-slot-pattern);"/>
    <ellipse cx="12.5" cy="3.5" rx="2" ry="2" style="stroke: rgb(0, 0, 0); stroke-width: 0.4; fill: url(#screw-head-slot-pattern);"/>
    <ellipse cx="17.5" cy="3.5" rx="2" ry="2" style="stroke: rgb(0, 0, 0); stroke-width: 0.4; fill: url(#screw-head-slot-pattern);"/>
    <ellipse cx="22.5" cy="3.5" rx="2" ry="2" style="stroke: rgb(0, 0, 0); stroke-width: 0.4; fill: url(#screw-head-slot-pattern);"/>
  </g>
  <g transform="translate(118, 2)">
    <rect x="0" y="0" width="25" height="9" style="fill: rgb(64, 192, 128); stroke:rgb(0, 0, 0); stroke-width: 0.4;"/>
    <path d="M 0 0.5 h 25 m 0 6 h -25" style="fill: none; stroke:rgb(0, 0, 0); stroke-width: 0.4;"/>
    <ellipse cx="2.5" cy="3.5" rx="2" ry="2" style="stroke: rgb(0, 0, 0); stroke-width: 0.4; fill: url(#screw-head-slot-pattern);"/>
    <ellipse cx="7.5" cy="3.5" rx="2" ry="2" style="stroke: rgb(0, 0, 0); stroke-width: 0.4; fill: url(#screw-head-slot-pattern);"/>
    <ellipse cx="12.5" cy="3.5" rx="2" ry="2" style="stroke: rgb(0, 0, 0); stroke-width: 0.4; fill: url(#screw-head-slot-pattern);"/>
    <ellipse cx="17.5" cy="3.5" rx="2" ry="2" style="stroke: rgb(0, 0, 0); stroke-width: 0.4; fill: url(#screw-head-slot-pattern);"/>
    <ellipse cx="22.5" cy="3.5" rx="2" ry="2" style="stroke: rgb(0, 0, 0); stroke-width: 0.4; fill: url(#screw-head-slot-pattern);"/>
  </g>

  <g transform="translate(23, 99)">
    <rect x="0" y="0" width="20" height="9" style="fill: rgb(64, 192, 128); stroke:rgb(0, 0, 0); stroke-width: 0.4;"/>
    <path d="M 0 2.5 h 20 m 0 6 h -20" style="fill: none; stroke:rgb(0, 0, 0); stroke-width: 0.4;"/>
    <ellipse cx="2.5" cy="5.5" rx="2" ry="2" style="stroke: rgb(0, 0, 0); stroke-width: 0.4; fill: url(#screw-head-slot-pattern);"/>
    <ellipse cx="7.5" cy="5.5" rx="2" ry="2" style="stroke: rgb(0, 0, 0); stroke-width: 0.4; fill: url(#screw-head-slot-pattern);"/>
    <ellipse cx="12.5" cy="5.5" rx="2" ry="2" style="stroke: rgb(0, 0, 0); stroke-width: 0.4; fill: url(#screw-head-slot-pattern);"/>
    <ellipse cx="17.5" cy="5.5" rx="2" ry="2" style="stroke: rgb(0, 0, 0); stroke-width: 0.4; fill: url(#screw-head-slot-pattern);"/>
  </g>
  <g transform="translate(43, 99)">
    <rect x="0" y="0" width="10" height="9" style="fill: rgb(38, 118, 206); stroke:rgb(0, 0, 0); stroke-width: 0.4;"/>
    <path d="M 0 2.5 h 10 m 0 6 h -10" style="fill: none; stroke:rgb(0, 0, 0); stroke-width: 0.4;"/>
    <ellipse cx="2.5" cy="5.5" rx="2" ry="2" style="stroke: rgb(0, 0, 0); stroke-width: 0.4; fill: url(#screw-head-slot-pattern);"/>
    <ellipse cx="7.5" cy="5.5" rx="2" ry="2" style="stroke: rgb(0, 0, 0); stroke-width: 0.4; fill: url(#screw-head-slot-pattern);"/>
  </g>
  <g transform="translate(63, 99)">
    <rect x="0" y="0" width="20" height="9" style="fill: rgb(216, 32, 32); stroke:rgb(0, 0, 0); stroke-width: 0.4;"/>
    <path d="M 0 2.5 h 20 m 0 6 h -20" style="fill: none; stroke:rgb(0, 0, 0); stroke-width: 0.4;"/>
    <ellipse cx="2.5" cy="5.5" rx="2" ry="2" style="stroke: rgb(0, 0, 0); stroke-width: 0.4; fill: url(#screw-head-slot-pattern);"/>
    <ellipse cx="7.5" cy="5.5" rx="2" ry="2" style="stroke: rgb(0, 0, 0); stroke-width: 0.4; fill: url(#screw-head-slot-pattern);"/>
    <ellipse cx="12.5" cy="5.5" rx="2" ry="2" style="stroke: rgb(0, 0, 0); stroke-width: 0.4; fill: url(#screw-head-slot-pattern);"/>
    <ellipse cx="17.5" cy="5.5" rx="2" ry="2" style="stroke: rgb(0, 0, 0); stroke-width: 0.4; fill: url(#screw-head-slot-pattern);"/>
  </g>
  <g transform="translate(83, 99)">
    <rect x="0" y="0" width="20" height="9" style="fill: rgb(216, 32, 32); stroke:rgb(0, 0, 0); stroke-width: 0.4;"/>
    <path d="M 0 2.5 h 20 m 0 6 h -20" style="fill: none; stroke:rgb(0, 0, 0); stroke-width: 0.4;"/>
    <ellipse cx="2.5" cy="5.5" rx="2" ry="2" style="stroke: rgb(0, 0, 0); stroke-width: 0.4; fill: url(#screw-head-slot-pattern);"/>
    <ellipse cx="7.5" cy="5.5" rx="2" ry="2" style="stroke: rgb(0, 0, 0); stroke-width: 0.4; fill: url(#screw-head-slot-pattern);"/>
    <ellipse cx="12.5" cy="5.5" rx="2" ry="2" style="stroke: rgb(0, 0, 0); stroke-width: 0.4; fill: url(#screw-head-slot-pattern);"/>
    <ellipse cx="17.5" cy="5.5" rx="2" ry="2" style="stroke: rgb(0, 0, 0); stroke-width: 0.4; fill: url(#screw-head-slot-pattern);"/>
  </g>
  <g transform="translate(103, 99)">
    <rect x="0" y="0" width="20" height="9" style="fill: rgb(216, 32, 32); stroke:rgb(0, 0, 0); stroke-width: 0.4;"/>
    <path d="M 0 2.5 h 20 m 0 6 h -20" style="fill: none; stroke:rgb(0, 0, 0); stroke-width: 0.4;"/>
    <ellipse cx="2.5" cy="5.5" rx="2" ry="2" style="stroke: rgb(0, 0, 0); stroke-width: 0.4; fill: url(#screw-head-slot-pattern);"/>
    <ellipse cx="7.5" cy="5.5" rx="2" ry="2" style="stroke: rgb(0, 0, 0); stroke-width: 0.4; fill: url(#screw-head-slot-pattern);"/>
    <ellipse cx="12.5" cy="5.5" rx="2" ry="2" style="stroke: rgb(0, 0, 0); stroke-width: 0.4; fill: url(#screw-head-slot-pattern);"/>
    <ellipse cx="17.5" cy="5.5" rx="2" ry="2" style="stroke: rgb(0, 0, 0); stroke-width: 0.4; fill: url(#screw-head-slot-pattern);"/>
  </g>
  <g transform="translate(123, 99)">
    <rect x="0" y="0" width="20" height="9" style="fill: rgb(216, 32, 32); stroke:rgb(0, 0, 0); stroke-width: 0.4;"/>
    <path d="M 0 2.5 h 20 m 0 6 h -20" style="fill: none; stroke:rgb(0, 0, 0); stroke-width: 0.4;"/>
    <ellipse cx="2.5" cy="5.5" rx="2" ry="2" style="stroke: rgb(0, 0, 0); stroke-width: 0.4; fill: url(#screw-head-slot-pattern);"/>
    <ellipse cx="7.5" cy="5.5" rx="2" ry="2" style="stroke: rgb(0, 0, 0); stroke-width: 0.4; fill: url(#screw-head-slot-pattern);"/>
    <ellipse cx="12.5" cy="5.5" rx="2" ry="2" style="stroke: rgb(0, 0, 0); stroke-width: 0.4; fill: url(#screw-head-slot-pattern);"/>
    <ellipse cx="17.5" cy="5.5" rx="2" ry="2" style="stroke: rgb(0, 0, 0); stroke-width: 0.4; fill: url(#screw-head-slot-pattern);"/>
  </g>

  <rect class="outline" y="11" width="156" height="88" style="stroke: rgb(0, 0, 0); stroke-width: 0.8; fill: none;"/>
</svg>
