<?xml version="1.0" encoding="utf-8"?>
<svg viewBox="0 0 35.5 110" xmlns="http://www.w3.org/2000/svg">
  <rect y="11" width="35.5" height="88" style="stroke: rgb(0, 0, 0); stroke-width: 0.8; fill: rgb(32, 32, 32);"/>
  <rect y="19" width="35.5" height="5" style="stroke: none; fill-opacity:0.2; fill: rgb(0, 0, 0);"/>
  <rect y="85" width="35.5" height="5" style="stroke: none; fill-opacity:0.2; fill: rgb(0, 0, 0);"/>
  <path d="M 0 19 h 35.5 M 0 90 h 35.5" style="fill: none; stroke: rgb(0, 0, 0); stroke-width: 0.4;"/>
  <path d="M 0 24 h 35.5 M 0 85 h 35.5" style="fill: none; stroke: rgb(0, 0, 0); stroke-width: 0.4;"/>
  <path d="M 0 32 h 35.5 M 0 77 h 35.5" style="fill: none; stroke: rgb(0, 0, 0); stroke-width: 0.4;"/>
  <path d="M 35.5 51 h -16 l -2 4 l 2 4 h 16 z" style="fill: rgb(131, 184, 25); stroke: rgb(76, 76, 76); stroke-width: 0.2;"/>
  <path d="M 4.5 55.5 a 0.5 0.5 0 0 1 0 -1 h 4 a 0.5 0.5 0 0 1 0 1 z" style="fill: rgb(76, 76, 76); stroke: rgb(0, 0, 0); stroke-width: 0.2;"/>
  <path d="M 11.5 55.5 a 0.5 0.5 0 0 1 0 -1 h 4 a 0.5 0.5 0 0 1 0 1 z" style="fill: rgb(76, 76, 76); stroke: rgb(0, 0, 0); stroke-width: 0.2;"/>

  <g transform="translate(15.5, 2)">
    <rect x="0" y="0" width="15" height="9" style="fill: rgb(64, 192, 128); stroke:rgb(0, 0, 0); stroke-width: 0.4;"/>
    <path d="M 0 0.5 h 15 m 0 6 h -15" style="fill: none; stroke:rgb(0, 0, 0); stroke-width: 0.4;"/>
    <ellipse cx="2.5" cy="3.5" rx="2" ry="2" style="stroke: rgb(0, 0, 0); stroke-width: 0.4; fill: rgb(111, 111, 111);"/>
    <ellipse cx="7.5" cy="3.5" rx="2" ry="2" style="stroke: rgb(0, 0, 0); stroke-width: 0.4; fill: rgb(111, 111, 111);"/>
    <ellipse cx="12.5" cy="3.5" rx="2" ry="2" style="stroke: rgb(0, 0, 0); stroke-width: 0.4; fill: rgb(111, 111, 111);"/>
  </g>

  <g transform="translate(5, 99)">
    <rect x="0" y="0" width="10" height="9" style="fill: rgb(64, 192, 128); stroke:rgb(0, 0, 0); stroke-width: 0.4;"/>
    <path d="M 0 2.5 h 10 m 0 6 h -10" style="fill: none; stroke:rgb(0, 0, 0); stroke-width: 0.4;"/>
    <ellipse cx="2.5" cy="5.5" rx="2" ry="2" style="stroke: rgb(0, 0, 0); stroke-width: 0.4; fill: rgb(111, 111, 111);"/>
    <ellipse cx="7.5" cy="5.5" rx="2" ry="2" style="stroke: rgb(0, 0, 0); stroke-width: 0.4; fill: rgb(111, 111, 111);"/>
  </g>
  <g transform="translate(20.5, 99)">
    <rect x="0" y="0" width="10" height="9" style="fill: rgb(38, 118, 206); stroke:rgb(0, 0, 0); stroke-width: 0.4;"/>
    <path d="M 0 2.5 h 10 m 0 6 h -10" style="fill: none; stroke:rgb(0, 0, 0); stroke-width: 0.4;"/>
    <ellipse cx="2.5" cy="5.5" rx="2" ry="2" style="stroke: rgb(0, 0, 0); stroke-width: 0.4; fill: rgb(111, 111, 111);"/>
    <ellipse cx="7.5" cy="5.5" rx="2" ry="2" style="stroke: rgb(0, 0, 0); stroke-width: 0.4; fill: rgb(111, 111, 111);"/>
  </g>

  <rect class="outline" y="11" width="35.5" height="88" style="stroke: rgb(0, 0, 0); stroke-width: 0.8; fill: none;"/>
</svg>
